<?xml version="1.0" encoding="utf-8"?>
<!-- Generator: Adobe Illustrator 19.1.0, SVG Export Plug-In . SVG Version: 6.00 Build 0)  -->
<svg version="1.1" id="Layer_1" xmlns="http://www.w3.org/2000/svg" xmlns:xlink="http://www.w3.org/1999/xlink" x="0px" y="0px"
	 viewBox="0 0 160 60" style="enable-background:new 0 0 160 60;" xml:space="preserve">
<style type="text/css">
	.st0{fill:#89ACAC;}
	.st1{fill:#B44626;}
	.st2{fill:#CEC32C;}
</style>
<g>
	<g>
		<path class="st0" d="M26.4,25.4l-0.6,1.4c-1.2,0.6-2.4,1-3.5,1.3c-1.2,0.3-2.4,0.4-3.8,0.4c-1.6,0-3.1-0.2-4.4-0.6
			c-1.4-0.4-2.6-1-3.6-1.7c-1-0.7-1.9-1.6-2.5-2.5c-0.6-0.9-1.1-1.9-1.5-3C6.2,19.6,6,18.4,6,17.1c0-3.3,1.1-6,3.4-8.2
			c2.3-2.2,5.4-3.2,9.4-3.2c0.9,0,1.8,0.1,2.6,0.2c0.8,0.1,1.8,0.3,2.9,0.6C25.5,6.8,26.2,7,26.4,7c-0.2,0.6-0.4,1.1-0.5,1.7
			c-0.2,0.9-0.3,1.9-0.3,3h-1l0-1.8c-0.1-1-0.7-1.8-1.7-2.3c-1-0.5-2.5-0.7-4.5-0.7c-1.5,0-2.7,0.2-3.7,0.6c-1,0.4-1.9,0.9-2.7,1.7
			c-0.8,0.8-1.4,1.7-1.9,2.9c-0.5,1.2-0.7,2.7-0.8,4.4c0,3.1,1,5.6,2.9,7.5c1.9,1.9,4.4,2.8,7.6,2.8c1.4,0,2.7-0.2,3.9-0.6
			c0.8-0.3,1.6-0.7,2.5-1.3L26.4,25.4z"/>
		<path class="st0" d="M30.9,17.5l-0.8-0.2c0-0.2,0-0.6,0-1c0-0.4,0-0.8,0-1c1.3-0.9,2.4-1.4,3.2-1.7c0.6-0.2,1.4-0.3,2.1-0.3
			c1.2,0,2.2,0.2,3,0.7c0.8,0.4,1.4,1.1,1.8,1.9c0.3,0.6,0.4,1.4,0.4,2.4L40.5,21v4.6c0,0.5,0,0.8,0.1,1.1c0.1,0.2,0.2,0.3,0.3,0.3
			c0.1,0.1,0.3,0.1,0.6,0.1l1,0.1l0.1,0.8H38v-2.7c-2.1,1.6-3.3,2.5-3.7,2.7c-0.4,0.2-1,0.3-1.6,0.3c-1.2,0-2.1-0.3-2.8-1
			c-0.7-0.7-1-1.5-1-2.6c0-0.7,0.1-1.4,0.4-1.9c0.2-0.6,0.5-1.1,0.9-1.4c0.3-0.3,0.7-0.6,1-0.8c0.6-0.3,1.6-0.6,2.9-0.9
			c1.3-0.3,2.7-0.6,4-0.7c0-1-0.1-1.7-0.4-2.3c-0.2-0.5-0.7-1-1.3-1.3c-0.6-0.3-1.3-0.5-2.1-0.5c-0.6,0-1.1,0.1-1.6,0.2
			c-0.5,0.2-0.7,0.3-0.8,0.4l-0.3,0.6C31.2,16.7,31,17.2,30.9,17.5z M38,19.9c-1.3,0.2-2.5,0.5-3.4,0.8c-0.9,0.3-1.6,0.6-2,0.9
			c-0.2,0.2-0.4,0.4-0.6,0.8c-0.3,0.5-0.4,1.1-0.4,1.7c0,0.8,0.2,1.4,0.6,1.8c0.4,0.4,1,0.6,1.8,0.6c0.7,0,1.4-0.2,2-0.6
			c0.7-0.4,1.3-1,2-1.8V19.9z"/>
		<path class="st0" d="M45.1,28L45,27.2c1.2,0,1.8,0,1.9-0.1c0.2,0,0.3-0.1,0.4-0.1c0.1-0.1,0.2-0.2,0.2-0.3
			c0.1-0.2,0.2-0.6,0.2-1.1c0.1-2.7,0.1-4.2,0.1-4.3v-1.8c0-0.8,0-1.7,0-2.7c0-0.6-0.1-1-0.1-1.1c-0.1-0.1-0.2-0.2-0.4-0.3
			c-0.2-0.1-0.8-0.1-2-0.1v-0.9c2.1-0.3,3.6-0.7,4.6-1.1c0.2-0.1,0.3-0.2,0.4-0.2c0.1,0,0.1,0,0.2,0.1c0,0.1,0.1,0.1,0.1,0.2
			c0,0.1,0,0.2,0,0.2c-0.1,0.6-0.1,1.6-0.1,2.9c0.5-0.5,0.9-1.1,1.3-1.6c0.4-0.5,0.7-0.9,0.8-1c0.3-0.3,0.7-0.5,1.1-0.6
			c0.4-0.2,0.8-0.2,1.3-0.2s0.9,0.1,1.3,0.3l0.1,0.2c-0.2,1.4-0.2,2.6-0.3,3.6h-0.7c-0.2-0.5-0.5-0.9-0.8-1.1
			c-0.3-0.2-0.7-0.3-1.2-0.3c-0.8,0-1.5,0.3-2,1c-0.9,1.1-0.8,1.2-0.8,2.9v1.6c0,0.7,0,1.9,0.1,3.7c0,0.6,0,1,0.1,1.2
			c0,0.2,0.1,0.3,0.2,0.4c0.1,0.1,0.2,0.1,0.3,0.2c0.3,0.1,1.1,0.2,2.5,0.3l0.1,0.8H45.1z"/>
		<path class="st0" d="M70.8,25.7l-0.5,1.1c-0.7,0.4-1.2,0.7-1.6,0.9c-0.5,0.2-1.2,0.4-1.8,0.5c-0.6,0.1-1.3,0.2-2,0.2
			c-1.4,0-2.4-0.3-3.5-0.8c-1.1-0.6-2-1.4-2.6-2.5c-0.6-1.1-0.9-2.4-0.9-4c0-1.2,0.2-2.3,0.5-3.2c0.3-1,0.7-1.7,1.1-2.1
			c0.3-0.3,0.8-0.7,1.4-1.1c0.6-0.4,1.3-0.8,1.9-1c0.8-0.3,1.7-0.5,2.6-0.5c1.2,0,2.2,0.3,3.1,0.8c0.9,0.5,1.6,1.2,2,2.1
			c0.4,0.9,0.6,1.9,0.6,3.1c0,0.3,0,0.6-0.1,1.1c-0.7,0.1-1.4,0.2-2,0.3c-1.1,0.1-2.2,0.1-3.3,0.1h-4.9c0,1.5,0.3,2.7,0.8,3.6
			c0.5,0.9,1.2,1.6,2,2c0.9,0.4,1.8,0.7,2.7,0.7c0.6,0,1.3-0.1,1.9-0.3c0.6-0.2,1.4-0.6,2.3-1.1L70.8,25.7z M60.9,19.4
			c0.3,0,0.8,0.1,1.6,0.1c1.5,0.1,2.6,0.1,3.2,0.1c1.4,0,2.3,0,2.7-0.1c0-0.2,0-0.4,0-0.6c0-1.6-0.3-2.8-1-3.6
			c-0.7-0.8-1.5-1.1-2.6-1.1c-1.2,0-2.1,0.4-2.8,1.3C61.2,16.3,60.9,17.6,60.9,19.4z"/>
		<path class="st0" d="M86.7,25.7l-0.5,1.1c-0.7,0.4-1.2,0.7-1.6,0.9c-0.5,0.2-1.2,0.4-1.8,0.5c-0.6,0.1-1.3,0.2-2,0.2
			c-1.4,0-2.4-0.3-3.5-0.8c-1.1-0.6-2-1.4-2.6-2.5c-0.6-1.1-0.9-2.4-0.9-4c0-1.2,0.2-2.3,0.5-3.2c0.3-1,0.7-1.7,1.1-2.1
			c0.3-0.3,0.8-0.7,1.4-1.1c0.6-0.4,1.3-0.8,1.9-1c0.8-0.3,1.7-0.5,2.6-0.5c1.2,0,2.2,0.3,3.1,0.8c0.9,0.5,1.6,1.2,2,2.1
			c0.4,0.9,0.6,1.9,0.6,3.1c0,0.3,0,0.6-0.1,1.1c-0.7,0.1-1.4,0.2-2,0.3c-1.1,0.1-2.2,0.1-3.3,0.1h-4.9c0,1.5,0.3,2.7,0.8,3.6
			c0.5,0.9,1.2,1.6,2,2c0.9,0.4,1.8,0.7,2.7,0.7c0.6,0,1.3-0.1,1.9-0.3c0.6-0.2,1.4-0.6,2.3-1.1L86.7,25.7z M76.8,19.4
			c0.3,0,0.8,0.1,1.6,0.1c1.5,0.1,2.6,0.1,3.2,0.1c1.4,0,2.3,0,2.7-0.1c0-0.2,0-0.4,0-0.6c0-1.6-0.3-2.8-1-3.6
			c-0.7-0.8-1.5-1.1-2.6-1.1c-1.2,0-2.1,0.4-2.8,1.3C77.2,16.3,76.8,17.6,76.8,19.4z"/>
		<path class="st0" d="M89.7,28v-0.8c1.2,0,1.8,0,1.9-0.1c0.2,0,0.3-0.1,0.4-0.1c0.1-0.1,0.2-0.2,0.2-0.3c0.1-0.2,0.2-0.6,0.2-1.1
			c0.1-2.7,0.1-4.2,0.1-4.3v-1.8c0-0.8,0-1.7,0-2.7c0-0.6-0.1-1-0.1-1.1c-0.1-0.1-0.2-0.2-0.4-0.3c-0.2-0.1-0.8-0.1-2-0.1v-0.9
			c2.1-0.3,3.6-0.7,4.6-1.1c0.2-0.1,0.3-0.2,0.4-0.2c0.1,0,0.1,0,0.2,0.1c0,0.1,0.1,0.1,0.1,0.2c0,0.1,0,0.2,0,0.2
			C95,14.4,95,15.4,95,16.7c0.5-0.5,0.9-1.1,1.3-1.6c0.4-0.5,0.7-0.9,0.8-1c0.3-0.3,0.7-0.5,1.1-0.6c0.4-0.2,0.8-0.2,1.3-0.2
			s0.9,0.1,1.3,0.3l0.1,0.2c-0.2,1.4-0.2,2.6-0.3,3.6h-0.7c-0.2-0.5-0.5-0.9-0.8-1.1c-0.3-0.2-0.7-0.3-1.2-0.3c-0.8,0-1.5,0.3-2,1
			c-0.6,0.7-0.8,1.6-0.8,2.9v1.6c0,0.7,0,1.9,0.1,3.7c0,0.6,0,1,0.1,1.2c0,0.2,0.1,0.3,0.2,0.4c0.1,0.1,0.2,0.1,0.3,0.2
			c0.3,0.1,1.1,0.2,2.5,0.3V28H89.7z"/>
		<path class="st0" d="M103.7,23.4h0.9c0,0.6,0,1.1,0.1,1.4c0.1,0.4,0.1,0.7,0.3,1c0.1,0.3,0.3,0.6,0.6,0.8c0.3,0.2,0.5,0.4,0.8,0.5
			c0.3,0.1,0.6,0.2,0.9,0.3c0.3,0,0.8,0.1,1.4,0.1c1.1,0,1.9-0.3,2.6-0.8c0.7-0.6,1-1.3,1-2.3c0-0.4-0.1-0.8-0.3-1.1
			c-0.2-0.3-0.5-0.6-0.9-0.8c-0.4-0.2-1.3-0.4-2.6-0.7c-1.3-0.3-2.2-0.5-2.5-0.6c-0.6-0.2-1-0.5-1.4-0.8c-0.3-0.3-0.6-0.7-0.8-1.2
			c-0.2-0.5-0.3-1-0.3-1.5c0-0.8,0.2-1.6,0.6-2.2c0.4-0.7,1.1-1.2,2-1.7c0.9-0.4,1.9-0.6,3-0.6c0.6,0,1.4,0.1,2.3,0.3
			c0.9,0.2,1.6,0.4,2.1,0.7c-0.1,1.1-0.1,2.3-0.2,3.5h-0.9c-0.1-0.8-0.1-1.2-0.2-1.5c-0.1-0.2-0.2-0.4-0.3-0.6
			c-0.1-0.2-0.3-0.4-0.6-0.6c-0.3-0.2-0.6-0.4-1.1-0.6c-0.4-0.2-1-0.2-1.6-0.2c-0.9,0-1.6,0.3-2.2,0.8c-0.6,0.5-0.8,1.2-0.8,1.9
			c0,0.4,0.1,0.7,0.2,1c0.2,0.3,0.4,0.5,0.6,0.7c0.3,0.2,0.6,0.3,1.1,0.5l2.6,0.6c1.3,0.3,2.2,0.6,2.7,0.8c0.5,0.2,0.9,0.6,1.2,1.1
			c0.3,0.5,0.4,1.1,0.4,1.8c0,1.4-0.6,2.6-1.7,3.6c-1.1,1-2.8,1.6-4.8,1.6c-0.9,0-1.9-0.1-3.4-0.4c-0.8-0.2-1.3-0.3-1.3-0.3
			c0,0-0.1-0.1-0.1-0.2c0-0.1,0-0.2,0-0.3c0.1-0.4,0.2-0.9,0.2-1.3C103.6,25.7,103.6,24.8,103.7,23.4z"/>
	</g>
	<g>
		<path class="st1" d="M31.9,32.9v-1c1.6,0.1,2.9,0,4,0c0.8,0,2.2,0,4.2,0c2,0,3.3,0,4,0c0.8,0,1.4,0,2.1,0c0.6,0,1.2,0,1.7,0
			c-0.3,0.9-0.4,2.5-0.5,4.7h-1c-0.1-1.2-0.2-2.2-0.4-2.9c-0.5-0.2-1.2-0.3-2-0.4c-0.8-0.1-1.7-0.1-2.7-0.1c-1,0-2.1,0.1-3.2,0.2
			C38,34,38,34.5,38,35c0,0.3,0,1.5-0.1,3.5v3.4c1.2,0,2.2,0,3.1,0c1.3,0,2.4-0.1,3.1-0.2c0.3-0.1,0.5-0.1,0.6-0.3
			c0.1-0.1,0.2-0.6,0.3-1.3l0.1-1h1l-0.1,3.5l0.1,3.8h-1l-0.1-1c-0.1-1.1-0.2-1.7-0.2-1.8c-0.1-0.1-0.3-0.3-0.6-0.3
			c-0.6-0.1-1.9-0.2-4-0.2c-0.7,0-1.5,0-2.3,0.1v3.1c0,1.4,0,2.8,0.1,4.1c0,1,0.1,1.6,0.2,1.7c0.1,0.2,0.3,0.3,0.6,0.4
			c0.3,0.1,1,0.1,2.2,0.2v1h-9v-1c1.2,0,1.9-0.1,2.2-0.2c0.3-0.1,0.5-0.2,0.6-0.4c0.1-0.2,0.2-0.7,0.2-1.5c0-0.2,0-1.7,0.1-4.4v-7.1
			c0-1.4,0-2.8,0-4.1c0-1-0.1-1.6-0.2-1.7c-0.1-0.2-0.3-0.3-0.6-0.4C33.9,32.9,33.2,32.9,31.9,32.9z"/>
		<path class="st1" d="M49.1,46.7c0-2.3,0.7-4.2,2.2-5.7c1.5-1.5,3.3-2.2,5.6-2.2c2.2,0,3.9,0.7,5.3,2c1.4,1.4,2,3.1,2,5.3
			c0,1.5-0.4,2.9-1.1,4.1c-0.7,1.2-1.7,2.2-3,2.9c-1.3,0.7-2.7,1.1-4.2,1.1c-1.2,0-2.2-0.2-3-0.6c-0.8-0.4-1.5-0.9-2-1.5
			c-0.5-0.6-0.9-1.2-1.2-1.9C49.3,49.2,49.1,48,49.1,46.7z M52,45.6c0,1.3,0.2,2.6,0.6,3.9c0.4,1.3,1,2.3,1.8,2.9
			c0.8,0.6,1.7,0.9,2.6,0.9c1.2,0,2.2-0.5,3-1.4c0.8-0.9,1.2-2.4,1.2-4.4c0-1.6-0.2-3.1-0.7-4.2c-0.5-1.2-1.1-2-1.8-2.5
			c-0.7-0.5-1.6-0.7-2.5-0.7c-1.3,0-2.3,0.5-3.1,1.4C52.4,42.2,52,43.6,52,45.6z"/>
		<path class="st1" d="M66.4,53.8v-0.9c1.2,0,1.8,0,1.9-0.1c0.2,0,0.3-0.1,0.4-0.1c0.1-0.1,0.2-0.2,0.2-0.3c0.1-0.2,0.2-0.6,0.2-1.1
			c0.1-2.7,0.1-4.2,0.1-4.3v-1.8c0-0.8,0-1.7,0-2.7c0-0.6-0.1-1-0.1-1.1c-0.1-0.1-0.2-0.2-0.4-0.3c-0.2-0.1-0.8-0.1-2-0.1v-0.9
			c2.1-0.3,3.6-0.7,4.6-1.1c0.2-0.1,0.3-0.2,0.4-0.2c0.1,0,0.1,0,0.2,0.1c0,0.1,0.1,0.1,0.1,0.2c0,0.1,0,0.2,0,0.2
			c-0.1,0.6-0.1,1.6-0.1,2.9c0.5-0.5,0.9-1.1,1.3-1.6c0.4-0.5,0.7-0.9,0.8-1c0.3-0.3,0.7-0.5,1.1-0.6c0.4-0.2,0.8-0.2,1.3-0.2
			c0.4,0,0.9,0.1,1.3,0.3l0.1,0.2c-0.2,1.4-0.2,2.6-0.3,3.6h-0.7c-0.2-0.5-0.5-0.9-0.8-1.1c-0.3-0.2-0.7-0.3-1.2-0.3
			c-0.8,0-1.5,0.3-2,1c-0.6,0.7-0.8,1.6-0.8,2.9v1.6c0,0.7,0,1.9,0.1,3.7c0,0.6,0,1,0.1,1.2c0,0.2,0.1,0.3,0.2,0.4
			c0.1,0.1,0.2,0.1,0.3,0.2c0.3,0.1,1.1,0.2,2.5,0.3v0.9H66.4z"/>
		<path class="st1" d="M86.6,53.8l-0.6-2l-1.4-4.8c-0.4-1.4-0.8-2.7-1.3-4c-0.4-1.3-0.7-2-0.8-2.2c-0.1-0.2-0.3-0.3-0.5-0.4
			c-0.2-0.1-0.7-0.2-1.5-0.2v-0.9c1.1,0.1,2.3,0.1,3.6,0.1c1.4,0,2.7,0,3.9-0.1v0.9c-1,0-1.6,0-1.9,0.1c-0.2,0-0.3,0.1-0.4,0.2
			c-0.1,0.1-0.1,0.2-0.1,0.4c0,0.2,0.1,0.9,0.4,1.9l1.4,5c0.2,0.8,0.5,1.7,0.9,2.7l1.2-2.7l2.3-5.1c0.5-1.2,1-2.4,1.5-3.6h0.8
			c0.7,1.9,1.1,3.1,1.4,3.7l1.8,4.5c0.6,1.5,1.1,2.6,1.4,3.4l1.2-3c0.8-2,1.3-3.6,1.8-5c0.2-0.8,0.4-1.3,0.4-1.6
			c0-0.3-0.1-0.5-0.3-0.6c-0.2-0.1-0.9-0.2-2-0.2v-0.9c1.6,0.1,2.6,0.1,3.2,0.1c0.7,0,1.7,0,2.9-0.1v0.9c-0.6,0-1,0.1-1.2,0.2
			c-0.2,0.1-0.4,0.3-0.5,0.5c-0.3,0.4-0.7,1.2-1.3,2.5l-1.6,3.9l-0.7,1.7c-0.1,0.3-0.5,1.4-1.2,3.1c-0.3,0.7-0.5,1.2-0.6,1.8H97
			l-0.7-1.8l-3.5-8.9l-1.5,3.2l-1.7,3.9c-0.4,0.9-0.7,1.7-1,2.3L88,53.8H86.6z"/>
		<path class="st1" d="M108.9,43.2L108,43c0-0.2,0-0.6,0-1c0-0.4,0-0.8,0-1c1.3-0.9,2.4-1.4,3.2-1.7c0.6-0.2,1.4-0.3,2.1-0.3
			c1.2,0,2.2,0.2,3,0.7c0.8,0.4,1.4,1.1,1.8,1.9c0.3,0.6,0.4,1.4,0.4,2.4l-0.1,2.8v4.6c0,0.5,0,0.8,0.1,1.1c0.1,0.2,0.2,0.3,0.3,0.3
			c0.1,0.1,0.3,0.1,0.6,0.1l1,0.1v0.9h-4.7l0.1-2.7c-2.1,1.6-3.3,2.5-3.7,2.7c-0.4,0.2-0.9,0.3-1.5,0.3c-1.2,0-2.2-0.3-2.9-1
			c-0.7-0.7-1-1.5-1-2.6c0-0.7,0.1-1.4,0.4-1.9c0.2-0.6,0.5-1.1,0.9-1.4c0.3-0.3,0.7-0.6,1-0.8c0.6-0.3,1.6-0.6,2.9-0.9
			c1.3-0.3,2.7-0.6,4-0.7c0-1-0.1-1.7-0.4-2.3c-0.2-0.5-0.7-1-1.3-1.3c-0.6-0.3-1.3-0.5-2.1-0.5c-0.6,0-1.1,0.1-1.6,0.2
			c-0.5,0.2-0.7,0.3-0.8,0.4l-0.3,0.6C109.2,42.4,109,42.9,108.9,43.2z M115.9,45.7c-1.3,0.2-2.5,0.5-3.4,0.8
			c-0.9,0.3-1.6,0.6-2,0.9c-0.2,0.2-0.4,0.4-0.6,0.8c-0.3,0.5-0.4,1.1-0.4,1.7c0,0.8,0.2,1.4,0.6,1.8c0.4,0.4,1,0.6,1.8,0.6
			c0.7,0,1.4-0.2,2-0.6c0.7-0.4,1.3-1,2-1.8V45.7z"/>
		<path class="st1" d="M123.5,53.8v-0.9c1.2,0,1.8,0,1.9-0.1c0.2,0,0.3-0.1,0.4-0.1c0.1-0.1,0.2-0.2,0.2-0.3
			c0.1-0.2,0.2-0.6,0.2-1.1c0.1-2.7,0.1-4.2,0.1-4.3v-1.8c0-0.8,0-1.7,0-2.7c0-0.6-0.1-1-0.1-1.1c-0.1-0.1-0.2-0.2-0.4-0.3
			c-0.2-0.1-0.8-0.1-2-0.1v-0.9c2.1-0.3,3.6-0.7,4.6-1.1c0.2-0.1,0.3-0.2,0.4-0.2c0.1,0,0.1,0,0.2,0.1c0,0.1,0.1,0.1,0.1,0.2
			c0,0.1,0,0.2,0,0.2c-0.1,0.6-0.1,1.6-0.1,2.9c0.5-0.5,0.9-1.1,1.3-1.6c0.4-0.5,0.7-0.9,0.8-1c0.3-0.3,0.7-0.5,1.1-0.6
			c0.4-0.2,0.8-0.2,1.3-0.2c0.4,0,0.9,0.1,1.3,0.3l0.1,0.2c-0.2,1.4-0.2,2.6-0.3,3.6h-0.7c-0.2-0.5-0.5-0.9-0.8-1.1
			c-0.3-0.2-0.7-0.3-1.2-0.3c-0.8,0-1.5,0.3-2,1c-0.6,0.7-0.8,1.6-0.8,2.9v1.6c0,0.7,0,1.9,0.1,3.7c0,0.6,0,1,0.1,1.2
			c0,0.2,0.1,0.3,0.2,0.4c0.1,0.1,0.2,0.1,0.3,0.2c0.3,0.1,1.1,0.2,2.5,0.3v0.9H123.5z"/>
		<path class="st1" d="M146.2,32.8V32c1.1-0.1,2.1-0.3,2.9-0.4c0.8-0.2,1.6-0.4,2.3-0.6l0.2,0.1c0,0.9-0.1,2.6-0.1,5.1l-0.1,2.5v9.7
			c0,1.1,0,2,0.1,2.7c0,0.8,0.1,1.2,0.2,1.4c0.1,0.1,0.2,0.3,0.5,0.4c0.2,0.1,0.9,0.2,1.9,0.3v0.8h-5.4c0-0.7,0.1-1.7,0.1-2.9
			c-0.4,0.3-1,0.7-1.7,1.3c-0.7,0.6-1.2,1.1-1.6,1.5c-0.8,0.2-1.5,0.3-2.2,0.3c-1.2,0-2.2-0.3-3.2-0.9c-1-0.6-1.7-1.4-2.3-2.5
			c-0.5-1.1-0.8-2.3-0.8-3.7c0-1,0.2-2,0.5-2.9c0.3-0.9,0.7-1.6,1.2-2.1c0.3-0.3,0.9-0.7,1.9-1.3c1-0.6,1.8-1,2.4-1.3
			c0.6-0.3,1.3-0.4,2-0.4c0.6,0,1.3,0.1,1.9,0.2c0.6,0.2,1.2,0.4,1.8,0.7v-4.1c0-1.4-0.1-2.3-0.2-2.6c0-0.1-0.1-0.2-0.2-0.2
			C148.1,32.9,147.4,32.9,146.2,32.8z M148.7,42.6c-0.7-0.8-1.4-1.3-2.2-1.7c-0.8-0.4-1.5-0.5-2.3-0.5c-0.8,0-1.6,0.2-2.3,0.6
			c-0.7,0.4-1.3,1.1-1.6,2c-0.4,0.9-0.6,1.9-0.6,3.1c0,1.9,0.5,3.4,1.4,4.4c0.9,1.1,2.1,1.6,3.4,1.6c0.7,0,1.3-0.1,1.9-0.4
			c0.5-0.3,1-0.7,1.4-1.3c0.4-0.6,0.7-1.2,0.8-1.9c0.1-0.5,0.1-1.6,0.1-3.3V42.6z"/>
	</g>
	<g>
		<path class="st2" d="M127.9,19.6h7.6v2h-7.6v7.6h-2v-7.6h-7.6v-2h7.6V12h2V19.6z"/>
	</g>
	<polygon class="st2" points="7.5,31.8 12.6,36.9 6.2,43.2 16.6,53.6 23,47.3 28,52.3 28,31.9 	"/>
</g>
</svg>
